<?xml version="1.0" encoding="UTF-8" standalone="no"?>
<svg width="1725px" height="1087px" viewBox="0 0 1725 1087" version="1.1" xmlns="http://www.w3.org/2000/svg" xmlns:xlink="http://www.w3.org/1999/xlink">
    <!-- Generator: Sketch 3.6.1 (26313) - http://www.bohemiancoding.com/sketch -->
    <title>Artboard 1</title>
    <desc>Created with Sketch.</desc>
    <defs>
        <linearGradient x1="88.0045098%" y1="66.8862062%" x2="-0.576159312%" y2="-0.374607778%" id="linearGradient-1">
            <stop stop-color="#FFFFFF" offset="0%"></stop>
            <stop stop-color="#FFFFFF" stop-opacity="0" offset="100%"></stop>
        </linearGradient>
    </defs>
    <g id="Page-1" stroke="none" stroke-width="1" fill="none" fill-rule="evenodd">
        <g id="bg-presskit" transform="translate(-60.000000, -1.000000)">
            <g id="layer1" transform="translate(0.142880, 0.494942)">
                <rect id="rect4173" fill="#E36F76" x="59.85712" y="0.505058" width="1724.2858" height="1085.7142"></rect>
                <g id="Group" transform="translate(0.000000, 185.000000)">
                    <path d="M445.617692,372.786927 L369.771771,296.941005 L200.267552,291.293039 L155.064791,322.367725 L171.975885,339.278819 L0.379625127,240.207448 L202.436059,442.263888 L179.47007,462.209253 L826.445036,1109.18429 L1515.99274,1109.18429 L1677.43602,1109.1843 L620.48038,0.117432033 L445.617692,372.786927 Z" id="path4424" fill="#000000" opacity="0.1"></path>
                    <path d="M179.469022,462.208316 L369.770498,296.94232 L200.266909,291.2922 L155.065952,322.367851 L179.469022,462.208316 Z" id="path4166" fill="#999999"></path>
                    <path d="M620.481192,0.11850875 L399.660642,470.734374 L0.378409975,240.208664 L620.481192,0.11850875 Z" id="rect4136" fill="#F2F2F2"></path>
                    <path d="M620.481583,0.11892825 L100.68667,298.122331 L179.46856,462.208009 L179.46856,343.606409 L620.481597,0.11892825 L620.481583,0.11892825 Z" id="path4141" fill="#CCCCCC"></path>
                    <g id="g4479" transform="translate(30.365000, 471.238333)">
                        <path d="M199.221127,136.670695 L199.111918,141.982725 L199.2594,141.985522 L202.542211,142.25045 L205.794972,142.703804 L209.014956,143.331963 L209.031317,143.337557 L209.096899,143.348743 L209.326309,142.174367 L210.336829,138.186936 L210.26034,138.167779 L210.192101,138.148621 L210.118409,138.134638 L206.731813,137.470975 L206.658121,137.454615 L206.584429,137.446225 L203.173265,136.973742 L203.099573,136.962555 L203.020427,136.954165 L199.587421,136.681043 L199.508275,136.675449 L199.42913,136.672653 L199.221575,136.669856 L199.221127,136.670695 Z M177.323004,139.877031 L174.376128,140.994062 L174.294186,141.026783 L174.21504,141.062301 L170.8503,142.599922 L170.771155,142.63544 L170.694666,142.676411 L167.368157,144.468025 L169.888974,149.146443 L173.12262,147.401253 L176.356266,145.923718 L179.207565,144.844918 L177.323088,139.877017 L177.323004,139.877031 Z M230.730052,146.325208 L227.97981,150.872518 L230.61262,152.464758 L233.409287,154.330121 L233.412083,154.330121 L236.1787,156.35934 L236.192683,156.370527 L236.490374,156.608132 L239.822337,152.467764 L239.510998,152.219225 L239.464573,152.18105 L239.415492,152.148329 L236.556012,150.048102 L236.506791,150.009788 L236.457569,149.979724 L233.513421,148.010591 L233.464339,147.97787 L233.412461,147.945149 L230.7305,146.325599 L230.730052,146.325208 Z M255.214547,168.026684 L250.926684,171.167466 L252.822083,173.756578 L254.709287,176.588749 L256.440816,179.461876 L256.457176,179.49194 L256.585543,179.724078 L261.258493,177.195066 L261.116479,176.932879 L261.086414,176.881 L261.053693,176.826326 L259.234769,173.802975 L259.204705,173.751097 L259.171984,173.699219 L257.208319,170.752343 L257.175598,170.705918 L257.14008,170.656697 L255.214645,168.026628 L255.214547,168.026684 Z M269.440939,197.440849 L264.298246,198.78729 L264.792571,200.66356 L264.806554,200.715438 L264.812148,200.742706 L265.374753,203.203451 L265.380347,203.230718 L265.39433,203.282596 L265.891395,205.82527 L265.894192,205.828067 L266.303862,208.288812 L266.385804,208.873273 L271.648669,208.160445 L271.566727,207.575983 L271.561134,207.535012 L271.55554,207.496838 L271.121302,204.874963 L271.115709,204.836788 L271.104522,204.795817 L270.588341,202.173942 L270.579951,202.132971 L270.571561,202.094796 L269.970711,199.475648 L269.962321,199.437473 L269.953931,199.396502 L269.440477,197.441031 L269.440939,197.440849 Z" id="path4169" fill="url(#linearGradient-1)"></path>
                        <path d="M104.006094,0.980469383 L102.831717,1.61682292 L102.80445,1.63080625 L102.779839,1.64478958 L99.0846316,3.74501633 L99.0600209,3.76137683 L99.0354103,3.77773733 L95.3920947,5.95443893 L95.3674841,5.97079943 L95.3428734,5.98478277 L94.6682894,6.40810022 L97.4949923,10.9062589 L98.1176841,10.5157044 L98.1288708,10.5073144 L98.1670453,10.4855004 L101.761195,8.33610823 L105.355346,6.29322713 L105.404567,6.26595963 L106.532519,5.65691555 L104.006234,0.981238467 L104.006094,0.980469383 Z M76.9953138,18.6972409 L74.3898272,20.7483162 L74.3706701,20.7674734 L74.3488561,20.7838339 L71.0933543,23.4603278 L71.0715403,23.4766883 L71.0497263,23.4958454 L68.7009598,25.5141438 L72.1612894,29.5452871 L74.4690848,27.5624924 L74.5100559,27.5297714 L77.6781479,24.9215581 L77.6973051,24.9075748 L77.7219157,24.8884176 L80.2837043,22.872846 L76.9954256,18.6969612 L76.9953138,18.6972409 Z M53.2018051,40.4451556 L52.6173437,41.06238 L52.5981866,41.084194 L52.5790294,41.106008 L49.7632335,44.2058333 L49.7440764,44.2276473 L49.7277159,44.2468045 L46.9802146,47.4067022 L46.9610574,47.4285162 L46.9446969,47.4503302 L46.0488827,48.5236629 L50.1264506,51.9266469 L51.0249917,50.8533142 L53.6987588,47.7780716 L53.7071488,47.7696816 L53.737213,47.7341639 L56.476534,44.7135402 L56.5120517,44.672569 L57.0609954,44.0963018 L53.201931,40.4447921 L53.2018051,40.4451556 Z M33.0980367,65.7134724 L31.7625165,67.6989939 L31.7485332,67.7236046 L31.7321727,67.7454186 L29.4844637,71.2494322 L29.4704804,71.2740428 L29.4541199,71.2986535 L27.3320372,74.7671774 L31.8629588,77.5419881 L33.9850415,74.0734782 L36.1726641,70.6623 L36.1838508,70.6459395 L36.2030079,70.6158753 L37.5084779,68.671325 L33.0977291,65.7135144 L33.0980367,65.7134724 Z M17.2657292,93.8603983 L15.7308346,97.2742893 L15.7196479,97.2988999 L15.7084613,97.3289641 L14.0943651,101.141604 L14.0803818,101.168871 L14.0719918,101.196139 L13.0587454,103.741539 L17.9938693,105.705218 L18.9880004,103.214437 L18.9880004,103.211641 L19.0071576,103.159762 L20.6021385,99.3990008 L22.1097096,96.0342612 L17.2647084,93.8603004 L17.2657292,93.8603983 Z M6.30301957,124.192206 L6.08452998,124.986963 L6.07893665,125.017027 L6.07054665,125.044294 L5.06276782,129.053582 L5.05437782,129.083646 L5.04878448,129.116367 L4.13386897,133.147496 L4.12827563,133.174764 L4.1226823,133.204828 L3.81679688,134.709672 L9.0250432,135.766616 L9.31728088,134.319118 L10.2185487,130.348075 L10.2349092,130.287946 L11.2099111,126.396091 L11.2127077,126.387701 L11.2238944,126.335823 L11.4259955,125.601153 L6.30241828,124.191884 L6.30301957,124.192206 Z M0.736995683,156.037066 L0.564930767,158.088142 L0.5621341,158.118206 L0.5621341,158.150927 L0.316335067,162.296761 L0.3135384,162.329482 L0.3135384,162.362203 L0.166056183,166.518959 L0.163259517,166.55168 L0.163259517,166.581744 L0.157666183,166.841191 L5.47243753,166.898522 L5.4752342,166.707342 L5.47803087,166.641761 L5.62005958,162.613358 L5.62005958,162.602171 L5.62285625,162.547496 L5.86046105,158.530015 L5.86605438,158.478137 L5.86605438,158.464153 L6.03265182,156.478632 L0.737009667,156.036185 L0.736995683,156.037066 Z M6.32486153,187.794531 L1.0428811,188.39264 L1.44708333,191.997725 L1.45267667,192.030446 L1.45827,192.06051 L2.04000463,196.252783 L2.0428013,196.288301 L2.04839463,196.321022 L2.49629478,199.052149 L7.73731803,198.191852 L7.30306562,195.523538 L7.29467562,195.488021 L7.29187895,195.460753 L6.72925953,191.399574 L6.72086953,191.333992 L6.32486153,187.794461 L6.32486153,187.794531 Z M12.5026562,218.541475 L7.40911522,220.062708 L7.90618077,221.728697 L7.9201641,221.761418 L7.9285541,221.791482 L9.28591627,225.948237 L9.29710293,225.978302 L9.31108627,226.008366 L10.5428222,229.487811 L10.5540088,229.515078 L10.5679922,229.545142 L10.8656973,230.323511 L15.8254039,228.425385 L15.5522954,227.707103 L15.5439054,227.690743 L15.5275449,227.647115 L14.317651,224.23321 L13.00126,220.207548 L12.9900733,220.169373 L12.9788866,220.139309 L12.503677,218.541601 L12.5026562,218.541475 Z M266.857308,229.452293 L266.690711,231.121008 L266.384825,233.543509 L266.382029,233.551899 L265.983294,236.102766 L265.543574,238.506152 L265.532387,238.560827 L265.529591,238.577187 L265.30018,239.664181 L270.497491,240.762083 L270.746031,239.606822 L270.754421,239.568647 L270.760015,239.535926 L271.227044,236.990526 L271.232637,236.955008 L271.238231,236.916834 L271.636979,234.36324 L271.639776,234.325065 L271.645369,234.289547 L271.973097,231.719565 L271.97869,231.68125 L271.97869,231.645733 L272.142547,229.977018 L266.85784,229.452643 L266.857308,229.452293 Z M24.4731587,247.406683 L19.8275178,249.993055 L21.5863554,253.150225 L21.6027159,253.18029 L21.6166993,253.207557 L23.471127,256.362001 L23.4874875,256.386612 L23.5014708,256.41388 L25.2630492,259.262438 L29.7830498,256.465772 L28.0515216,253.671846 L28.0375383,253.644578 L28.0183811,253.617311 L26.2295073,250.569392 L26.2103501,250.536671 L26.1991634,250.517513 L24.4731027,247.406767 L24.4731587,247.406683 Z M258.896093,259.349862 L258.560158,260.139165 L256.356146,264.711058 L254.236805,268.611094 L258.907014,271.1483 L261.050939,267.199099 L261.08366,267.144424 L261.10827,267.087092 L263.377835,262.384092 L263.4079,262.329417 L263.43251,262.266632 L263.787561,261.428177 L258.896121,259.349792 L258.896093,259.349862 Z M42.0861458,273.330469 L37.9922034,276.714324 L38.5903125,277.4408 L38.6094697,277.462614 L38.6286268,277.484428 L41.0074435,280.237396 L41.0292575,280.25921 L41.0484147,280.281024 L43.4900445,282.976648 L43.5092017,282.998462 L43.5283589,283.023072 L45.1888797,284.773716 L49.0479581,281.119479 L47.4256677,279.409807 L47.3874932,279.366179 L45.0278057,276.760692 L45.0005382,276.730628 L44.9865549,276.716645 L42.6869537,274.053813 L42.6487792,274.010185 L42.0861738,273.330133 L42.0861458,273.330469 Z M242.391928,285.634166 L242.083316,286.016526 L238.633908,289.900173 L238.612094,289.924784 L235.356592,293.275862 L239.169245,296.976537 L242.503935,293.538049 L242.547563,293.497078 L242.585877,293.450654 L246.100826,289.493258 L246.139,289.44963 L246.177175,289.403206 L246.518578,288.979888 L242.391844,285.634264 L242.391928,285.634166 Z M64.429443,295.239513 L61.1002071,299.382621 L62.4138713,300.439566 L62.438482,300.458723 L62.4630927,300.47788 L65.3252992,302.673697 L65.3499099,302.692854 L65.3745205,302.709214 L68.2858925,304.836751 L68.3105031,304.855908 L68.3351138,304.875065 L69.7498356,305.861002 L72.7868478,301.499404 L71.4212914,300.548971 L71.3694132,300.513453 L68.5126602,298.418694 L65.743303,296.296612 L65.7293196,296.285425 L65.6965986,296.260814 L64.4293591,295.239374 L64.429443,295.239513 Z M219.39045,306.535418 L219.010816,306.8058 L214.709305,309.607934 L214.684694,309.621917 L210.582558,312.033483 L213.278167,316.613584 L217.40216,314.191069 L217.454038,314.161005 L217.505916,314.128284 L221.96583,311.22238 L222.015051,311.192315 L222.064133,311.156798 L222.487464,310.850912 L219.39038,306.53574 L219.39045,306.535418 Z M90.6809559,312.227082 L88.2857647,316.968299 L90.2057463,317.937847 L90.2330138,317.951831 L90.263078,317.965814 L93.4912703,319.500709 L93.5213345,319.514692 L93.5513987,319.528675 L96.8150807,320.981628 L96.8451449,320.995611 L96.875209,321.009594 L98.0987507,321.523048 L100.144359,316.612493 L98.9153494,316.10178 L95.7718401,314.700706 L95.7500261,314.692316 L95.7118516,314.675955 L92.5437457,313.16837 L90.6811237,312.228872 L90.6809559,312.227082 Z M191.707813,320.453211 L189.004009,321.354479 L185.450816,322.427812 L185.426206,322.433405 L185.374327,322.449766 L181.894882,323.386537 L181.875725,323.392131 L181.818394,323.408491 L181.752812,323.422474 L182.984548,328.589749 L183.123822,328.557028 L183.161996,328.548638 L183.200311,328.534655 L186.832691,327.556913 L186.868209,327.548523 L186.906383,327.537336 L190.536037,326.442147 L190.571555,326.433757 L190.609729,326.419774 L193.390008,325.491183 L191.707645,320.452275 L191.707813,320.453211 Z M119.895747,323.228022 L118.617586,328.387117 L120.914461,328.95519 L120.949978,328.960783 L120.982699,328.97197 L124.459404,329.736676 L124.494921,329.74227 L124.533096,329.75066 L128.031656,330.422517 L128.064377,330.42811 L128.099894,330.4365 L129.219652,330.619486 L130.085416,325.378463 L129.033939,325.203671 L125.532638,324.531814 L125.532638,324.534611 L122.189755,323.7972 L122.157034,323.78881 L122.124313,323.783216 L119.895719,323.228791 L119.895747,323.228022 Z M161.184825,326.805798 L160.482917,326.865926 L157.014393,327.070754 L153.477603,327.179964 L153.447539,327.18276 L153.403911,327.18276 L150.798424,327.188354 L150.809611,332.50037 L153.491572,332.494777 L153.52709,332.494777 L153.568061,332.49198 L157.1786,332.382771 L157.214117,332.379974 L157.255089,332.379974 L160.873821,332.164211 L160.911996,332.161414 L160.947514,332.158618 L161.652148,332.095833 L161.185132,326.805658 L161.184825,326.805798 Z" id="path4463" fill="#FFFFFF"></path>
                    </g>
                </g>
            </g>
        </g>
        <g id="Artboard-1"></g>
    </g>
</svg>