<?xml version="1.0" encoding="UTF-8" standalone="no"?><!DOCTYPE svg PUBLIC "-//W3C//DTD SVG 1.1//EN" "http://www.w3.org/Graphics/SVG/1.1/DTD/svg11.dtd"><svg width="100%" height="100%" viewBox="0 0 348 279" version="1.1" xmlns="http://www.w3.org/2000/svg" xmlns:xlink="http://www.w3.org/1999/xlink" xml:space="preserve" xmlns:serif="http://www.serif.com/" style="fill-rule:evenodd;clip-rule:evenodd;stroke-linecap:round;stroke-linejoin:round;stroke-miterlimit:1.5;"><rect id="アートボード1" x="0" y="0" width="347.765" height="278.436" style="fill:none;"/><clipPath id="_clip1"><rect x="0" y="0" width="347.765" height="278.436"/></clipPath><g clip-path="url(#_clip1)"><g><g><circle cx="173.529" cy="140" r="111.5" style="fill:none;stroke:#bfbfbf;stroke-opacity:0.8;stroke-width:2px;"/><circle cx="173.529" cy="140" r="78.827" style="fill:none;stroke:#bfbfbf;stroke-opacity:0.25098;stroke-width:2px;"/><path d="M171.936,28.535l0,222.311" style="fill:none;stroke:#bfbfbf;stroke-opacity:0.501961;stroke-width:2px;"/><path d="M76.702,84.707l193.124,111.5" style="fill:none;stroke:#bfbfbf;stroke-opacity:0.501961;stroke-width:2px;"/><path d="M76.436,194.827l193.118,-111.497" style="fill:none;stroke:#bfbfbf;stroke-opacity:0.501961;stroke-width:2px;"/></g><path d="M171.318,37.075l-84.145,53.678l0,97.875l84.763,-33.296l47.16,11.586l22.16,-67.25l-69.938,-62.593Z" style="fill:url(#_Radial2);"/><text x="140.177px" y="12.653px" style="font-family:'OpenSans-Bold', 'Open Sans', sans-serif;font-weight:700;font-size:16px;fill:#8c8c8c;">Gr<tspan x="158.708px 168.372px " y="12.653px 12.653px ">ap</tspan>hic</text><text x="282.935px" y="85.623px" style="font-family:'OpenSans-Bold', 'Open Sans', sans-serif;font-weight:700;font-size:16px;fill:#8c8c8c;">UI</text><text x="286.341px" y="209.623px" style="font-family:'OpenSans-Bold', 'Open Sans', sans-serif;font-weight:700;font-size:16px;fill:#8c8c8c;">Markup</text><text x="116.767px" y="275.089px" style="font-family:'OpenSans-Bold', 'Open Sans', sans-serif;font-weight:700;font-size:16px;fill:#8c8c8c;">Pr<tspan x="133.759px 143.665px 152.704px 159.65px 169.314px " y="275.089px 275.089px 275.089px 275.089px 275.089px ">ogram</tspan>ming</text><text x="0.436px" y="208.209px" style="font-family:'OpenSans-Bold', 'Open Sans', sans-serif;font-weight:700;font-size:16px;fill:#8c8c8c;">W<tspan x="15.748px 23.014px " y="208.209px 208.209px ">ri</tspan>tting</text><text x="6.117px" y="77.944px" style="font-family:'OpenSans-Bold', 'Open Sans', sans-serif;font-weight:700;font-size:16px;fill:#8c8c8c;">T<tspan x="14.586px 21.531px 31.195px " y="77.944px 77.944px 77.944px ">rai</tspan>ning</text></g></g><defs><radialGradient id="_Radial2" cx="0" cy="0" r="1" gradientUnits="userSpaceOnUse" gradientTransform="matrix(-83.7109,-118.291,133.729,-94.6357,171.318,134.788)"><stop offset="0" style="stop-color:#ffd500;stop-opacity:1"/><stop offset="1" style="stop-color:#f3f3f3;stop-opacity:0.6"/></radialGradient></defs></svg>