<?xml version="1.0" encoding="utf-8"?>
<!-- Generator: Adobe Illustrator 22.1.0, SVG Export Plug-In . SVG Version: 6.00 Build 0)  -->
<svg version="1.1" id="レイヤー_1" xmlns="http://www.w3.org/2000/svg" xmlns:xlink="http://www.w3.org/1999/xlink" x="0px"
	 y="0px" viewBox="0 0 1725 1086" style="enable-background:new 0 0 1725 1086;" xml:space="preserve">
<style type="text/css">
	.st0{fill:#F9CFAC;}
	.st1{opacity:0.1;enable-background:new    ;}
	.st2{fill:#FFFFFF;}
	.st3{fill:#F8CF1C;}
	.st4{fill:none;stroke:#2B2B2B;stroke-width:20;stroke-linecap:square;}
	.st5{fill:#D8D8D8;}
</style>
<title>bg-presskit</title>
<desc>Created with Sketch.</desc>
<g id="Page-1">
	<g id="bg-presskit">
		<rect id="rect4173" y="0" class="st0" width="1724.3" height="1085.7"/>
		<g id="icon" transform="translate(88.000000, 88.000000)">
			<path id="shadow" class="st1" d="M5.8,632.5l575.3,476.6h689.5h161.4L375.1,0L5.8,632.5z"/>
			<g id="note">
				<path id="Rectangle-2" class="st2" d="M0,22C0,12.6,7.6,5,17,5h372.4l146.6,147.6v472.3c0,9.4-7.6,17-17,17H17
					c-9.4,0-17-7.6-17-17V22z"/>
				<path id="Path-2" class="st3" d="M89.9,0.5v227.2l41.3-39.3l38.6,38.5V1.2L89.9,0.5z"/>
				<path id="Line" class="st4" d="M108.6,303.6h317.8"/>
				<path id="Line-Copy" class="st4" d="M108.6,405.1h317.8"/>
				<path id="Line-Copy-2" class="st4" d="M108.6,506.6h317.8"/>
				<path id="Path-6" class="st5" d="M386.9,3l149.4,149.2H387.6L386.9,3z"/>
			</g>
		</g>
	</g>
</g>
</svg>
